<?xml version="1.0" encoding="utf-8"?>
<!-- Generator: Adobe Illustrator 24.2.0, SVG Export Plug-In . SVG Version: 6.00 Build 0)  -->
<svg version="1.1" id="Layer_1" xmlns="http://www.w3.org/2000/svg" xmlns:xlink="http://www.w3.org/1999/xlink" x="0px" y="0px"
	 viewBox="0 0 900 660" style="enable-background:new 0 0 900 660;" xml:space="preserve">
<style type="text/css">
	.st0{clip-path:url(#SVGID_2_);fill:#FFFFFF;}
	.st1{clip-path:url(#SVGID_4_);fill:#333333;}
	.st2{clip-path:url(#SVGID_6_);fill:#333333;}
	.st3{clip-path:url(#SVGID_8_);fill:#333333;}
	.st4{clip-path:url(#SVGID_10_);fill:#333333;}
	.st5{clip-path:url(#SVGID_12_);fill:#FF3A3A;}
	.st6{enable-background:new    ;}
	.st7{fill:#333333;}
</style>
<g>
	<g>
		<g>
			<defs>
				<rect id="SVGID_1_" y="44" width="900" height="374.9"/>
			</defs>
			<clipPath id="SVGID_2_">
				<use xlink:href="#SVGID_1_"  style="overflow:visible;"/>
			</clipPath>
			<rect x="90" y="44" class="st0" width="720" height="374.9"/>
		</g>
	</g>
	<g>
		<g>
			<defs>
				<rect id="SVGID_3_" y="44" width="900" height="374.9"/>
			</defs>
			<clipPath id="SVGID_4_">
				<use xlink:href="#SVGID_3_"  style="overflow:visible;"/>
			</clipPath>
			<polygon class="st1" points="90,86.8 90,101.4 90,404.3 90,418.9 104.6,418.9 795.4,418.9 810,418.9 810,404.3 810,86.8 
				781.4,86.8 780.7,389.6 119.3,389.6 119.3,116.1 682.1,116.1 682.1,86.8 104.6,86.8 			"/>
		</g>
	</g>
	<g>
		<g>
			<defs>
				<rect id="SVGID_5_" y="44" width="900" height="374.9"/>
			</defs>
			<clipPath id="SVGID_6_">
				<use xlink:href="#SVGID_5_"  style="overflow:visible;"/>
			</clipPath>
			<path class="st2" d="M283.1,256.4c0,29.7-4.7,51.9-14.2,66.6c-9.4,14.6-23.7,22-43,22s-33.6-7.3-43-21.8
				c-9.4-14.6-14.1-36.8-14.1-66.7c0-29.8,4.7-52,14.1-66.7c9.5-14.6,23.8-22,43-22c19.3,0,33.6,7.3,43,22
				C278.3,204.4,283.1,226.6,283.1,256.4 M258.9,256.4c0-25.1-2.6-43-7.8-53.8c-5.1-10.7-13.5-16.1-25.3-16.1
				c-11.7,0-20.1,5.4-25.3,16.1c-5.1,10.8-7.7,28.7-7.7,53.8c0,25,2.6,42.9,7.7,53.6c5.2,10.7,13.6,16.1,25.3,16.1s20.2-5.3,25.3-16
				C256.3,299.4,258.9,281.5,258.9,256.4"/>
		</g>
	</g>
	<g>
		<g>
			<defs>
				<rect id="SVGID_7_" y="44" width="900" height="374.9"/>
			</defs>
			<clipPath id="SVGID_8_">
				<use xlink:href="#SVGID_7_"  style="overflow:visible;"/>
			</clipPath>
			<path class="st3" d="M412.1,176.7v23.4c-7-4.5-14.1-7.9-21.2-10.2c-7-2.3-14.1-3.4-21.3-3.4c-10.9,0-19.5,2.6-25.8,7.7
				c-6.3,5-9.5,11.9-9.5,20.5c0,7.5,2.1,13.3,6.2,17.3c4.2,4,12,7.3,23.3,9.9l12.1,2.7c16,3.7,27.7,9.6,35,17.6
				c7.3,8,11,18.9,11,32.7c0,16.2-5,28.6-15.1,37.2c-10.1,8.5-24.7,12.8-43.9,12.8c-8,0-16-0.9-24.1-2.6s-16.2-4.2-24.4-7.7V310
				c8.8,5.6,17,9.6,24.8,12.2c7.9,2.6,15.7,3.9,23.7,3.9c11.7,0,20.7-2.6,27.2-7.8c6.5-5.3,9.7-12.6,9.7-22c0-8.5-2.2-15.1-6.7-19.6
				c-4.4-4.5-12.2-8-23.2-10.4l-12.4-2.9c-15.9-3.6-27.4-9-34.5-16.2c-7.2-7.2-10.7-17-10.7-29.2c0-15.2,5.1-27.4,15.3-36.6
				c10.3-9.2,23.9-13.8,40.9-13.8c6.6,0,13.5,0.8,20.7,2.3C396.5,171.5,404.1,173.7,412.1,176.7"/>
		</g>
	</g>
	<g>
		<g>
			<defs>
				<rect id="SVGID_9_" y="44" width="900" height="374.9"/>
			</defs>
			<clipPath id="SVGID_10_">
				<use xlink:href="#SVGID_9_"  style="overflow:visible;"/>
			</clipPath>
			<polyline class="st4" points="452.9,170.9 476.1,170.9 476.1,240.9 539.3,240.9 539.3,170.9 562.6,170.9 562.6,341.6 
				539.3,341.6 539.3,260.3 476.1,260.3 476.1,341.6 452.9,341.6 452.9,170.9 			"/>
		</g>
	</g>
	<g>
		<g>
			<defs>
				<rect id="SVGID_11_" y="44" width="900" height="374.9"/>
			</defs>
			<clipPath id="SVGID_12_">
				<use xlink:href="#SVGID_11_"  style="overflow:visible;"/>
			</clipPath>
			<polyline class="st5" points="578.1,170.9 600.7,170.9 617,309.5 636.5,217.8 660.6,217.8 680.3,309.7 735.6,44 758.2,44 
				693.6,341.6 671.8,341.6 648.6,240.2 625.5,341.6 603.6,341.6 578.1,170.9 			"/>
		</g>
	</g>
</g>
<g class="st6">
	<path class="st7" d="M99.6,532.8v-67.4h14.9v74.1c0,5.3,0.1,9.1,0.4,11.4c0.3,2.3,0.8,4,1.5,5.2c1.6,2.9,3.8,5.1,6.8,6.5
		c3,1.5,6.5,2.2,10.7,2.2c4.2,0,7.8-0.7,10.8-2.2s5.2-3.6,6.8-6.5c0.7-1.2,1.2-3,1.5-5.2c0.3-2.2,0.4-6,0.4-11.3v-74.3h14.8v67.4
		c0,11.2-0.7,19.1-2.1,23.8s-3.8,8.6-7.2,11.7c-3.2,2.9-6.9,5-11.1,6.4c-4.2,1.4-8.8,2.1-14,2.1c-5.1,0-9.8-0.7-13.9-2.1
		c-4.2-1.4-7.9-3.6-11.1-6.4c-3.4-3-5.8-6.9-7.2-11.8C100.3,551.7,99.6,543.8,99.6,532.8z"/>
	<path class="st7" d="M189.1,465.4H204V514l46.2-48.6h17.4L225,510.1l43.8,64.7H251L215.3,520L204,532v42.8h-14.9V465.4z"/>
	<path class="st7" d="M314.5,463.4c11.7,0,20.5,4.8,26.5,14.4c6,9.6,9,23.7,9,42.4c0,18.7-3,32.8-9,42.3c-6,9.6-14.8,14.4-26.5,14.4
		c-11.7,0-20.5-4.8-26.4-14.4c-6-9.6-8.9-23.7-8.9-42.3c0-18.7,3-32.8,8.9-42.4C294,468.2,302.9,463.4,314.5,463.4z M314.5,475.1
		c-6.9,0-12,3.7-15.4,11.1c-3.4,7.4-5.1,18.7-5.1,33.9c0,15.1,1.7,26.4,5.1,33.8c3.4,7.4,8.5,11.1,15.4,11.1
		c6.9,0,12.1-3.7,15.5-11.1c3.4-7.4,5.1-18.7,5.1-33.8c0-15.2-1.7-26.5-5.1-33.9C326.6,478.8,321.5,475.1,314.5,475.1z M304.8,519.8
		c0-2.7,0.9-5,2.8-7c1.9-2,4.1-2.9,6.8-2.9c2.7,0,5.1,1,7,2.9c2,2,2.9,4.3,2.9,7c0,2.7-1,5.1-2.9,7c-1.9,1.9-4.3,2.9-7.1,2.9
		c-2.7,0-5-0.9-6.8-2.8C305.7,525,304.8,522.6,304.8,519.8z"/>
	<path class="st7" d="M404.8,463.4c11.7,0,20.5,4.8,26.5,14.4c6,9.6,9,23.7,9,42.4c0,18.7-3,32.8-9,42.3c-6,9.6-14.8,14.4-26.5,14.4
		c-11.7,0-20.5-4.8-26.4-14.4c-6-9.6-8.9-23.7-8.9-42.3c0-18.7,3-32.8,8.9-42.4C384.4,468.2,393.2,463.4,404.8,463.4z M404.8,475.1
		c-6.9,0-12,3.7-15.4,11.1c-3.4,7.4-5.1,18.7-5.1,33.9c0,15.1,1.7,26.4,5.1,33.8c3.4,7.4,8.5,11.1,15.4,11.1
		c6.9,0,12.1-3.7,15.5-11.1c3.4-7.4,5.1-18.7,5.1-33.8c0-15.2-1.7-26.5-5.1-33.9C416.9,478.8,411.8,475.1,404.8,475.1z M395.1,519.8
		c0-2.7,0.9-5,2.8-7c1.9-2,4.1-2.9,6.8-2.9c2.7,0,5.1,1,7,2.9c2,2,2.9,4.3,2.9,7c0,2.7-1,5.1-2.9,7c-1.9,1.9-4.3,2.9-7.1,2.9
		c-2.7,0-5-0.9-6.8-2.8C396,525,395.1,522.6,395.1,519.8z"/>
	<path class="st7" d="M495.1,463.4c11.7,0,20.5,4.8,26.5,14.4c6,9.6,9,23.7,9,42.4c0,18.7-3,32.8-9,42.3c-6,9.6-14.8,14.4-26.5,14.4
		c-11.7,0-20.5-4.8-26.4-14.4c-6-9.6-8.9-23.7-8.9-42.3c0-18.7,3-32.8,8.9-42.4C474.7,468.2,483.5,463.4,495.1,463.4z M495.1,475.1
		c-6.9,0-12,3.7-15.4,11.1c-3.4,7.4-5.1,18.7-5.1,33.9c0,15.1,1.7,26.4,5.1,33.8c3.4,7.4,8.5,11.1,15.4,11.1
		c6.9,0,12.1-3.7,15.5-11.1c3.4-7.4,5.1-18.7,5.1-33.8c0-15.2-1.7-26.5-5.1-33.9C507.2,478.8,502.1,475.1,495.1,475.1z M485.4,519.8
		c0-2.7,0.9-5,2.8-7c1.9-2,4.1-2.9,6.8-2.9c2.7,0,5.1,1,7,2.9c2,2,2.9,4.3,2.9,7c0,2.7-1,5.1-2.9,7c-1.9,1.9-4.3,2.9-7.1,2.9
		c-2.7,0-5-0.9-6.8-2.8C486.3,525,485.4,522.6,485.4,519.8z"/>
	<path class="st7" d="M585.5,463.4c11.7,0,20.5,4.8,26.5,14.4c6,9.6,9,23.7,9,42.4c0,18.7-3,32.8-9,42.3c-6,9.6-14.8,14.4-26.5,14.4
		c-11.7,0-20.5-4.8-26.4-14.4c-6-9.6-8.9-23.7-8.9-42.3c0-18.7,3-32.8,8.9-42.4C565,468.2,573.8,463.4,585.5,463.4z M585.5,475.1
		c-6.9,0-12,3.7-15.4,11.1c-3.4,7.4-5.1,18.7-5.1,33.9c0,15.1,1.7,26.4,5.1,33.8c3.4,7.4,8.5,11.1,15.4,11.1
		c6.9,0,12.1-3.7,15.5-11.1c3.4-7.4,5.1-18.7,5.1-33.8c0-15.2-1.7-26.5-5.1-33.9C597.6,478.8,592.4,475.1,585.5,475.1z M575.7,519.8
		c0-2.7,0.9-5,2.8-7c1.9-2,4.1-2.9,6.8-2.9c2.7,0,5.1,1,7,2.9c2,2,2.9,4.3,2.9,7c0,2.7-1,5.1-2.9,7c-1.9,1.9-4.3,2.9-7.1,2.9
		c-2.7,0-5-0.9-6.8-2.8C576.6,525,575.7,522.6,575.7,519.8z"/>
	<path class="st7" d="M650.4,562.3h23v-83.6l-24.8,5.6v-13.5l24.6-5.4h14.8v96.9h22.7v12.5h-60.4V562.3z"/>
	<path class="st7" d="M740.7,562.3h23v-83.6l-24.8,5.6v-13.5l24.6-5.4h14.8v96.9h22.7v12.5h-60.4V562.3z"/>
</g>
</svg>
